#!OML:ASF F:\VICON\USERDATA\INSTALL\rory3\rory3.ASF
:FULLY-SPECIFIED
:DEGREES
1181
root 0.687946 17.8446 -2.26369 -179.141 157.601 -183.434
lowerback 6.84748 -1.28784 -7.36064
upperback 1.11259 -2.25679 -0.599259
thorax -2.42555 -1.06259 3.70299
lowerneck -23.887 -6.52358 -13.0219
upperneck 17.2073 -5.69372 5.52558
head 9.93441 -2.86937 3.16708
rclavicle -4.21423e-014 -4.29375e-014
rhumerus -40.2195 -23.5956 -40.693
rradius 56.177
rwrist -4.13749
rhand -36.4362 -3.16763
rfingers 7.12502
rthumb -9.53066 -32.9321
lclavicle -4.21423e-014 -4.29375e-014
lhumerus -42.6974 26.8575 57.4132
lradius 25.5398
lwrist -4.60186
lhand -16.7153 30.6902
lfingers 7.12502
lthumb 9.51008 1140.46
rfemur -22.3535 -4.50716 13.2319
rtibia 36.7701
rfoot -10.0429 -12.865
rtoes 4.3745
lfemur -2.79551 3.6824 -20.6114
ltibia 22.7531
lfoot -17.0595 7.25521
ltoes -13.3783
1182
root 0.701222 17.8383 -2.26469 -179.174 157.462 -183.358
lowerback 6.7439 -1.28444 -7.25255
upperback 1.15604 -2.23309 -0.590043
thorax -2.329 -1.05635 3.64587
lowerneck -23.8917 -6.62131 -13.064
upperneck 17.1317 -5.82679 5.59311
head 9.92488 -2.92395 3.17536
rclavicle 3.00165e-014 -3.02153e-014
rhumerus -39.8619 -24.5833 -40.3422
rradius 54.4053
rwrist -4.56778
rhand -35.9393 -2.74255
rfingers 7.12502
rthumb -9.05124 -32.5284
lclavicle 3.00165e-014 -3.02153e-014
lhumerus -41.7656 27.4477 56.5204
lradius 25.0898
lwrist -3.80057
lhand -16.8551 30.9885
lfingers 7.12502
lthumb 9.37514 1140.76
rfemur -22.217 -4.51633 13.07
rtibia 36.3147
rfoot -9.72185 -12.4662
rtoes 3.63805
lfemur -2.81877 3.73741 -20.7206
ltibia 22.9254
lfoot -17.1574 7.1362
ltoes -13.4568
1183
root 0.712051 17.8333 -2.26516 -179.177 157.23 -183.2
lowerback 6.72787 -1.29351 -7.17247
upperback 1.13397 -2.24033 -0.636252
thorax -2.34723 -1.05938 3.55353
lowerneck -23.8326 -6.70536 -12.9927
upperneck 17.0987 -5.96543 5.5503
head 9.91277 -2.98834 3.12614
rclavicle 2.84262e-014 3.18055e-014
rhumerus -39.6478 -25.0649 -39.9238
rradius 52.9854
rwrist -5.32801
rhand -35.9965 -4.03353
rfingers 7.12502
rthumb -9.10641 -33.8169
lclavicle 2.84262e-014 3.18055e-014
lhumerus -40.7825 28.3137 55.1662
lradius 24.4416
lwrist -3.6525
lhand -16.6914 31.2449
lfingers 7.12502
lthumb 9.53313 1141.01
rfemur -22.0357 -4.47116 12.8038
rtibia 35.8015
rfoot -9.62562 -12.233
rtoes 3.22419
lfemur -2.82096 3.77664 -20.8867
ltibia 23.0254
lfoot -17.213 6.87004
ltoes -13.2338
1184
root 0.720141 17.8299 -2.26664 -179.214 156.992 -183.159
lowerback 6.71514 -1.32625 -6.99422
upperback 1.12178 -2.27105 -0.646919
thorax -2.35684 -1.07545 3.445
lowerneck -23.7349 -6.77329 -12.9475
upperneck 16.9733 -6.08936 5.56512
head 9.86209 -3.03991 3.10449
rclavicle -1.44119e-014 6.36111e-015
rhumerus -39.4574 -25.0563 -39.4855
rradius 51.9937
rwrist -6.35648
rhand -36.2215 -5.55814
rfingers 7.12502
rthumb -9.32351 -35.332
lclavicle -1.44119e-014 6.36111e-015
lhumerus -39.7924 29.3025 53.6999
lradius 23.9083
lwrist -3.40935
lhand -16.9772 31.4449
lfingers 7.12502
lthumb 9.25737 1141.22
rfemur -21.8429 -4.281 12.6688
rtibia 35.2194
rfoot -9.43197 -12.2756
rtoes 1.97178
lfemur -2.82682 3.88228 -20.9108
ltibia 23.0873
lfoot -17.232 6.5966
ltoes -13.4542
1185
root 0.727615 17.8251 -2.26754 -179.154 156.74 -183.016
lowerback 6.64345 -1.35632 -6.92958
upperback 1.0862 -2.30287 -0.670487
thorax -2.3539 -1.09112 3.38509
lowerneck -23.6636 -6.85594 -12.9531
upperneck 16.9067 -6.22578 5.632
head 9.84191 -3.09536 3.1075
rclavicle -2.6339e-014 3.18055e-014
rhumerus -39.0904 -25.8586 -38.5678
rradius 50.5066
rwrist -6.36027
rhand -36.0575 -5.60393
rfingers 7.12502
rthumb -9.16525 -35.3848
lclavicle -2.6339e-014 3.18055e-014
lhumerus -38.7217 30.188 52.2441
lradius 23.5686
lwrist -3.17567
lhand -17.138 31.844
lfingers 7.12502
lthumb 9.1022 1141.63
rfemur -21.6833 -4.07954 12.4249
rtibia 34.5729
rfoot -9.05364 -12.4341
rtoes 1.27992
lfemur -2.88467 3.92063 -21.0563
ltibia 23.136
lfoot -17.2452 6.37287
ltoes -13.534
1186
root 0.735173 17.8184 -2.2627 -179.142 156.46 -182.85
lowerback 6.53592 -1.38364 -6.88002
upperback 1.06161 -2.32913 -0.716567
thorax -2.32048 -1.10525 3.30832
lowerneck -23.5379 -6.93967 -12.9368
upperneck 16.8604 -6.37384 5.67331
head 9.81927 -3.15911 3.09693
rclavicle 2.73329e-014 -6.36111e-015
rhumerus -38.7327 -26.8296 -37.3967
rradius 48.9917
rwrist -6.05673
rhand -35.9548 -5.4668
rfingers 7.12502
rthumb -9.06621 -35.252
lclavicle 2.73329e-014 -6.36111e-015
lhumerus -37.5263 30.6932 50.8644
lradius 23.4803
lwrist -2.79645
lhand -17.0977 32.5597
lfingers 7.12502
lthumb 9.14102 1142.34
rfemur -21.4093 -3.8605 12.137
rtibia 33.8816
rfoot -8.73382 -12.6261
rtoes 1.73663
lfemur -2.85291 3.92003 -21.2099
ltibia 23.1955
lfoot -17.3055 6.10814
ltoes -13.6998
1187
root 0.739752 17.8128 -2.25271 -179.224 156.161 -182.705
lowerback 6.42869 -1.41092 -6.87717
upperback 1.06879 -2.35668 -0.750137
thorax -2.25168 -1.12155 3.27
lowerneck -23.2672 -6.99649 -12.9254
upperneck 16.6628 -6.506 5.74234
head 9.71743 -3.21272 3.10161
rclavicle 2.10712e-014 4.77083e-015
rhumerus -38.5307 -27.1406 -36.2616
rradius 48.0984
rwrist -6.37756
rhand -35.8744 -5.79564
rfingers 7.12502
rthumb -8.98865 -35.5841
lclavicle 2.10712e-014 4.77083e-015
lhumerus -36.3006 31.2174 49.2962
lradius 23.4131
lwrist -2.41769
lhand -17.0054 33.0017
lfingers 7.12502
lthumb 9.23014 1142.78
rfemur -21.0102 -3.54202 11.89
rtibia 33.1993
rfoot -8.37595 -12.8504
rtoes 3.08693
lfemur -2.71545 3.80708 -21.3246
ltibia 23.276
lfoot -17.3904 5.91072
ltoes -13.7302
1188
root 0.744436 17.8061 -2.24049 -179.398 155.878 -182.698
lowerback 6.3129 -1.46941 -6.77662
upperback 1.11467 -2.41542 -0.730545
thorax -2.13638 -1.15653 3.23327
lowerneck -23.2016 -7.04891 -12.9838
upperneck 16.6276 -6.60648 5.91216
head 9.71208 -3.24417 3.15606
rclavicle -2.96189e-014 1.59028e-014
rhumerus -38.2616 -26.9809 -35.1554
rradius 47.6151
rwrist -7.13207
rhand -35.7605 -6.38749
rfingers 7.12502
rthumb -8.87871 -36.1807
lclavicle -2.96189e-014 1.59028e-014
lhumerus -35.1188 32.3282 47.3768
lradius 23.279
lwrist -2.36268
lhand -17.1055 33.0979
lfingers 7.12502
lthumb 9.13356 1142.88
rfemur -20.5674 -3.29949 11.8277
rtibia 32.5763
rfoot -8.20089 -12.9015
rtoes 5.82737
lfemur -2.55029 3.79544 -21.2782
ltibia 23.3663
lfoot -17.481 5.62833
ltoes -13.7038
1189
root 0.752037 17.8007 -2.22943 -179.497 155.602 -182.765
lowerback 6.13735 -1.54423 -6.57355
upperback 1.10012 -2.48722 -0.671484
thorax -2.05199 -1.19633 3.17995
lowerneck -23.299 -7.12183 -13.1265
upperneck 16.7675 -6.68366 6.06234
head 9.79768 -3.27249 3.21859
rclavicle -2.64384e-014 -3.57812e-014
rhumerus -37.8798 -26.7109 -33.9081
rradius 47.1896
rwrist -8.20388
rhand -35.6872 -7.2571
rfingers 7.12502
rthumb -8.80797 -37.0533
lclavicle -2.64384e-014 -3.57812e-014
lhumerus -33.828 33.0445 45.7003
lradius 23.3799
lwrist -1.65387
lhand -17.7069 33.6837
lfingers 7.12502
lthumb 8.55324 1143.49
rfemur -20.2169 -3.19181 11.8698
rtibia 32.0322
rfoot -8.65965 -13.0494
rtoes 9.06887
lfemur -2.51645 3.84642 -21.1734
ltibia 23.4622
lfoot -17.5348 5.32249
ltoes -13.6687
1190
root 0.755371 17.7962 -2.2194 -179.583 155.277 -182.703
lowerback 6.0849 -1.64569 -6.49257
upperback 1.04889 -2.615 -0.655984
thorax -2.06572 -1.25899 3.15861
lowerneck -23.2995 -7.13854 -13.2173
upperneck 16.7981 -6.70522 6.18351
head 9.81903 -3.27503 3.27304
rclavicle -5.01931e-014 -7.15625e-015
rhumerus -37.376 -26.2907 -32.632
rradius 46.8198
rwrist -9.66227
rhand -35.826 -8.09402
rfingers 7.12502
rthumb -8.94195 -37.8845
lclavicle -5.01931e-014 -7.15625e-015
lhumerus -32.4452 33.0132 44.2197
lradius 23.7316
lwrist -0.0634008
lhand -18.0371 34.4344
lfingers 7.12502
lthumb 8.23457 1144.25
rfemur -19.8364 -3.131 11.8031
rtibia 31.5891
rfoot -9.56583 -13.7194
rtoes 9.48345
lfemur -2.45472 3.9329 -21.1747
ltibia 23.554
lfoot -17.6268 4.95027
ltoes -13.6862
1191
root 0.754123 17.79 -2.2077 -179.73 154.879 -182.624
lowerback 6.04444 -1.7977 -6.46563
upperback 1.05736 -2.81159 -0.64964
thorax -2.01536 -1.35888 3.16133
lowerneck -23.2931 -7.11791 -13.2528
upperneck 16.7414 -6.68437 6.27178
head 9.80018 -3.25685 3.31376
rclavicle 4.3832e-014 -1.35174e-014
rhumerus -36.5922 -26.2269 -31.2986
rradius 46.3506
rwrist -10.9093
rhand -35.9333 -8.886
rfingers 7.12502
rthumb -9.04543 -38.6721
lclavicle 4.3832e-014 -1.35174e-014
lhumerus -30.9219 32.7546 42.8237
lradius 24.2095
lwrist 2.30693
lhand -18.4713 35.145
lfingers 7.12502
lthumb 7.81543 1144.98
rfemur -19.3856 -2.97671 11.7127
rtibia 31.2224
rfoot -10.6009 -14.4895
rtoes 9.6529
lfemur -2.29628 3.881 -21.1661
ltibia 23.636
lfoot -17.7076 4.57553
ltoes -13.4554
